<?xml version="1.0" encoding="UTF-8" standalone="no"?>
<svg
   viewBox="0 0 288.7908 79.438916"
   width="288.7908"
   height="80.984367"
   fill="none"
   stroke="#000000"
   stroke-width="2.3"
   stroke-linecap="round"
   stroke-linejoin="round"
   version="1.1"
   id="svg168"
   sodipodi:docname="codepen.svg"
   inkscape:version="1.1.2 (0a00cf5339, 2022-02-04)"
   xmlns:inkscape="http://www.inkscape.org/namespaces/inkscape"
   xmlns:sodipodi="http://sodipodi.sourceforge.net/DTD/sodipodi-0.dtd"
   xmlns="http://www.w3.org/2000/svg"
   xmlns:svg="http://www.w3.org/2000/svg">
  <defs
     id="defs172">
    <inkscape:perspective
       sodipodi:type="inkscape:persp3d"
       inkscape:vp_x="7.5472093 : 107.96329 : 1"
       inkscape:vp_y="0 : 1000 : 0"
       inkscape:vp_z="296.33801 : 107.96329 : 1"
       inkscape:persp3d-origin="151.94261 : 94.723474 : 1"
       id="perspective2817" />
  </defs>
  <sodipodi:namedview
     id="namedview170"
     pagecolor="#ffffff"
     bordercolor="#666666"
     borderopacity="1.0"
     inkscape:pageshadow="2"
     inkscape:pageopacity="0.0"
     inkscape:pagecheckerboard="0"
     showgrid="false"
     inkscape:zoom="1.8382014"
     inkscape:cx="161.02697"
     inkscape:cy="-17.952331"
     inkscape:window-width="1920"
     inkscape:window-height="1012"
     inkscape:window-x="1920"
     inkscape:window-y="0"
     inkscape:window-maximized="1"
     inkscape:current-layer="g6" />
  <g
     shape-rendering="crispEdges"
     id="g6"
     transform="matrix(2.6727515,0,0,2.6727515,3.0736642,2.6156642)"
     inkscape:groupmode="layer"
     style="display:none">
    <rect
       width="105.75"
       height="28"
       fill="#000000"
       id="rect4"
       x="0"
       y="0" />
  </g>
  <path
     d="m 167.61041,26.489187 h -17.415 v 27.099997 h 17.415 m 65.8,-27.099997 h -17.415 v 27.099997 h 17.395 m -5.805,-13.544997 h -11.6 m -54.18,0 h -11.6 m 98.685,13.534997 V 26.479187 l 21.285,27.099997 V 26.479187 m -214.785018,20.713 21.285,14.124997 21.275005,-14.124997 v -14.32 l -21.285005,-14.123 -21.275,14.125 z m 42.570005,0 -21.285005,-14.32 -21.285,14.32 m 0,-14.32 21.285,14.125 21.275005,-14.123 m -21.285005,-14.125 v 14.125 m 0,14.32 V 61.319184 M 183.09041,41.969187 h 11.6 c 4.257,0 7.74,-3.483 7.74,-7.74 0,-4.257 -3.483,-7.74 -7.74,-7.74 h -11.6 V 53.589184 M 41.835392,30.359187 c -2.515,-2.515 -5.805,-3.87 -9.675,-3.87 -7.74,0 -13.545,5.805 -13.545,13.545 0,7.74 5.805,13.544997 13.545,13.544997 3.87,0 7.16,-1.548 9.675,-3.87 m 94.815018,-9.674997 c 0,7.74 -5.805,13.544997 -13.54501,13.544997 h -9.675 V 26.479187 h 9.675 c 7.74001,0 13.54501,5.805 13.54501,13.545 z"
     stroke-width="4.45"
     id="path166"
     style="opacity:1;fill:none;fill-opacity:1;stroke:#ffffff;stroke-opacity:1" />
</svg>
