<?xml version="1.0" encoding="UTF-8" standalone="no"?>
<svg
   width="282.64346"
   height="74.837044"
   version="1.1"
   id="svg53"
   sodipodi:docname="github.svg"
   inkscape:version="1.1.2 (0a00cf5339, 2022-02-04)"
   xmlns:inkscape="http://www.inkscape.org/namespaces/inkscape"
   xmlns:sodipodi="http://sodipodi.sourceforge.net/DTD/sodipodi-0.dtd"
   xmlns="http://www.w3.org/2000/svg"
   xmlns:svg="http://www.w3.org/2000/svg">
  <sodipodi:namedview
     id="namedview55"
     pagecolor="#ffffff"
     bordercolor="#666666"
     borderopacity="1.0"
     inkscape:pageshadow="2"
     inkscape:pageopacity="0.0"
     inkscape:pagecheckerboard="0"
     showgrid="false"
     inkscape:zoom="2.7729167"
     inkscape:cx="139.74455"
     inkscape:cy="82.945153"
     inkscape:window-width="1920"
     inkscape:window-height="1012"
     inkscape:window-x="1920"
     inkscape:window-y="0"
     inkscape:window-maximized="1"
     inkscape:current-layer="svg53" />
  <defs
     id="defs13">
    <clipPath
       id="A">
      <path
         d="M 0,216 H 216 V 0 H 0 Z"
         id="path2" />
    </clipPath>
    <clipPath
       id="B">
      <path
         d="m 121.724,55.66 c 0.343,1.114 0.4,2.832 -3.038,2.054 0,0 -9.395,-1.342 -9.843,-12.303 l -0.214,-21 h -2.258 l -0.213,21 c -0.448,10.96 -9.842,12.303 -9.842,12.303 -3.428,0.778 -3.383,-0.938 -3.04,-2.052 -3.37,5.738 -12.394,4.996 -12.394,4.996 -3.133,-1.117 -0.224,-3.13 -0.224,-3.13 4.92,-1.788 5.37,-7.158 5.37,-7.158 V 35.2 l 0.52,-11.728 c 1.117,-5.224 3.874,-8.312 6.578,-10.13 l 28.803,0.033 c 3.484,2.365 7.047,6.846 7.047,15.307 V 50.37 c 0,0 0.447,5.37 5.37,7.158 0,0 2.906,2.014 -0.225,3.13 0,0 -0.382,0.03 -1.017,0.032 -2.455,0 -8.7,-0.47 -11.378,-5.03 M 94.53,34.04 v 16.552 c 0,1.617 -0.285,2.977 -0.773,4.12 3.24,-2.526 3.457,-8.855 3.457,-8.855 v -20.66 c -3.225,2.282 -2.684,8.846 -2.684,8.846 M 117.8,45.86 c 0,0 0.217,6.33 3.456,8.855 -0.487,-1.143 -0.772,-2.503 -0.772,-4.12 V 34.042 c 0,0 0.54,-6.1 -2.684,-8.612 z"
         id="path5" />
    </clipPath>
    <clipPath
       id="C">
      <path
         d="M 0,216 H 216 V 0 H 0 Z"
         id="path8" />
    </clipPath>
    <path
       id="D"
       d="m 158.542,54.996 c 0,-9.73 -22.538,-17.617 -50.34,-17.617 -27.802,0 -50.34,7.887 -50.34,17.617 0,9.73 22.537,17.62 50.34,17.62 27.803,0 50.34,-7.9 50.34,-17.62" />
    <path
       id="E"
       d="m 75.282,93.676 c 0,-0.555 -0.65,-1.006 -1.454,-1.006 -0.804,0 -1.455,0.45 -1.455,1.006 0,0.556 0.65,1.008 1.455,1.008 0.805,0 1.454,-0.45 1.454,-1.008" />
  </defs>
  <rect
     width="282.64346"
     height="74.837044"
     fill="#000000"
     id="rect4"
     x="0"
     y="0"
     style="display:none;stroke-width:2.67275" />
  <g
     id="g84"
     transform="matrix(0.87482956,0,0,0.87482956,27.685423,4.3747529)">
    <path
       d="m 114.22596,23.859325 c 2.20566,0 4.7181,-0.547403 7.58946,-1.640205 v 7.044061 c -0.63763,0.228586 -1.54997,0.481234 -2.73501,0.751928 0.36494,1.048689 0.54741,2.029203 0.54741,2.939537 0,2.917481 -0.88828,5.470026 -2.66684,7.65964 a 10.286375,10.286375 0 0 1 -6.76936,3.809769 c -1.80463,0.272699 -2.73501,1.253213 -2.73501,2.939537 0,0.593521 0.29676,1.203084 0.88828,1.77856 0.77398,0.866221 1.91491,1.413625 3.41876,1.640206 6.51671,1.00257 9.77908,3.715526 9.77908,8.136863 0,7.066118 -4.21682,10.599177 -12.63239,10.599177 -3.46489,0 -6.3162,-0.615578 -8.54792,-1.84473 -2.8072,-1.549974 -4.238871,-4.010283 -4.238871,-7.318766 0,-3.809768 2.119434,-6.450539 6.356301,-7.864164 v -0.13635 c -1.54998,-0.956452 -2.32597,-2.416195 -2.32597,-4.375218 0,-2.552545 0.72987,-4.150642 2.20566,-4.786272 v -0.13635 c -1.45974,-0.501285 -2.757071,-1.640205 -3.897996,-3.418766 -1.277275,-1.91491 -1.91491,-3.966169 -1.91491,-6.155784 0,-3.282416 1.162982,-6.015424 3.488946,-8.205038 a 11.429305,11.429305 0 0 1 8.02056,-3.075887 12.331619,12.331619 0 0 1 6.22196,1.640206 m -10.2563,9.708894 c 0,3.148072 1.43568,4.718098 4.30704,4.718098 2.78114,0 4.1707,-1.596093 4.1707,-4.786273 0,-1.323393 -0.32082,-2.462313 -0.95645,-3.418766 -0.77399,-1.048688 -1.84473,-1.57203 -3.21425,-1.57203 -2.87136,0 -4.30704,1.684318 -4.30704,5.060976 m 10.531,26.257326 c 0,-2.325964 -1.91491,-3.488946 -5.74473,-3.488946 -3.69347,0 -5.5382,1.207095 -5.5382,3.62329 0,2.370077 2.00514,3.555116 6.01543,3.555116 3.50899,0 5.2655,-1.231157 5.2655,-3.68946 m 14.98241,-42.583186 c -1.32339,0 -2.46231,-0.501286 -3.41876,-1.503856 a 5.1131103,5.1131103 0 0 1 -1.36751,-3.555116 c 0,-1.413624 0.45517,-2.6207194 1.36751,-3.6232901 0.95645,-1.0025706 2.09738,-1.503856 3.41876,-1.503856 1.27728,0 2.37008,0.5012854 3.28242,1.503856 0.95645,1.0025707 1.43568,2.2116711 1.43568,3.6232901 a 4.9727504,4.9727504 0 0 1 -1.43568,3.555116 c -0.91234,1.00257 -2.00514,1.503856 -3.28242,1.503856 m -3.89799,35.691515 c 0.0902,-0.912339 0.13635,-2.462313 0.13635,-4.651928 V 27.005392 l -0.13635,-4.445398 h 7.70776 c -0.0902,0.866221 -0.13635,2.301902 -0.13635,4.307043 v 20.99383 l 0.13635,5.060976 h -7.72781 m 22.05655,-30.361849 h 5.94926 v 6.633007 a 20.01131,20.01131 0 0 1 -1.29934,-0.06818 l -1.71038,-0.06817 h -2.93954 v 12.718611 c 0,3.05383 1.00257,4.581748 3.00771,4.581748 a 6.6570691,6.6570691 0 0 0 3.82982,-1.162982 v 6.81748 c -1.68432,0.91234 -3.71552,1.367507 -6.0856,1.367507 -3.32853,0 -5.63044,-1.203085 -6.90571,-3.555116 -0.95645,-1.77856 -1.43568,-4.581748 -1.43568,-8.409563 V 29.174955 h 0.0682 v -0.13635 l -1.02664,-0.06818 a 17.264267,17.264267 0 0 0 -2.32596,0.204525 v -6.633008 h 3.34859 v -2.666838 c 0,-1.277275 -0.0682,-2.301902 -0.20453,-3.077891 h 7.93234 c -0.13635,0.866221 -0.20452,1.84473 -0.20452,2.939537 v 2.803187 m 24.26221,-0.184473 c -1.96103,0 -4.01029,0.681748 -6.15579,2.05126 V 12.440045 l 0.13635,-5.129151 h -7.79599 c 0.13635,0.7298714 0.20453,2.4382518 0.20453,5.129151 v 36.17275 l -0.20453,4.307043 h 7.93234 c 0,-0.136349 -0.0461,-0.681748 -0.13635,-1.644216 l -0.13637,-2.666838 V 31.793669 c 1.5961,-1.503856 3.14807,-2.255784 4.65193,-2.255784 1.73244,0 3.05383,0.866221 3.96617,2.598664 0.68175,1.367506 1.02663,3.077891 1.02663,5.129151 l -0.0682,9.231671 c 0,1.549974 -0.1143,3.68946 -0.34088,6.428483 h 8.27322 c -0.20052,-1.138921 -0.2727,-3.236298 -0.2727,-6.290129 v -9.36802 c 0,-3.966169 -0.88828,-7.338817 -2.66684,-10.119948 -2.00514,-3.208226 -4.81234,-4.786272 -8.41157,-4.786272 m 26.27537,30.833058 c -3.60123,0 -6.26807,-1.596093 -8.02056,-4.786273 -1.36751,-2.598663 -2.05126,-6.015424 -2.05126,-10.186118 v -9.36802 l -0.2727,-6.290128 h 8.20504 c -0.13635,1.002571 -0.22859,3.148072 -0.2727,6.428483 l -0.0682,9.231671 c 0,2.598663 0.29676,4.467454 0.88828,5.606375 0.68175,1.413624 1.93697,2.119434 3.76165,2.119434 1.27727,0 2.71295,-0.751928 4.30704,-2.255784 V 26.850996 a 29.856554,29.856554 0 0 0 -0.13635,-2.666838 l -0.13635,-1.640205 h 7.93234 c -0.0902,0.775989 -0.13635,2.21167 -0.13635,4.307043 v 20.943701 l 0.13635,5.129152 h -7.41902 v -2.482365 c -2.09738,1.804627 -4.33111,2.735012 -6.70119,2.735012 m 33.62622,-0.06817 a 8.0205652,8.0205652 0 0 1 -6.15377,-2.666838 v 2.462313 h -7.24859 c 0.13635,-0.77599 0.20452,-2.211671 0.20452,-4.307043 V 12.444056 L 218.4492,7.3149043 h 7.79599 c -0.0922,0.8020565 -0.13635,2.5304883 -0.13635,5.1291517 v 11.898508 c 2.09738,-1.323393 4.15064,-2.005141 6.15578,-2.005141 3.60124,0 6.42849,1.596092 8.48175,4.786272 1.73244,2.781131 2.59866,6.155784 2.59866,10.119948 0,4.056401 -0.91234,7.58946 -2.73501,10.599177 -2.20565,3.508998 -5.10509,5.265502 -8.75244,5.265502 m -1.02663,-23.590488 c -1.50386,0 -3.07789,0.751928 -4.7181,2.255784 v 11.850385 c 1.45974,1.413625 2.89542,2.119434 4.30704,2.119434 1.77856,0 3.12201,-1.00257 4.03435,-2.939537 0.72987,-1.549974 1.0948,-3.396709 1.0948,-5.5382 0,-5.153213 -1.57203,-7.725809 -4.71809,-7.725809"
       id="path51"
       style="fill:#ffffff;fill-opacity:1;stroke-width:2.00514"
       inkscape:highlight-color="4294967295" />
    <path
       fill="#ffffff"
       d="m 36.367275,38.075083 c 2.719383,4.798911 7.838222,7.678258 16.316299,8.478077 -1.279709,0.959783 -2.719383,2.719383 -2.879346,4.798912 -1.599638,0.959781 -4.638949,1.279709 -7.038404,0.47989 -3.359238,-1.119746 -4.638948,-7.678257 -9.757786,-6.718476 -1.119746,0.159965 -0.959783,0.959783 0,1.599637 1.599637,0.959783 3.359237,2.55942 4.159057,4.798912 1.919563,4.958875 5.918656,6.238584 12.317205,5.278803 v 7.198367 c 0,2.239493 -3.199275,2.879346 -3.199275,3.999092 0,0.479891 1.119746,0.479891 1.919565,0.479891 1.599638,0 5.118839,-1.439673 5.118839,-3.679164 0,-1.919565 0,-8.318114 0.159963,-9.43786 0,-2.399455 1.279711,-3.199274 1.279711,-3.199274 0,0 0.159963,13.117024 -0.319928,14.716661 -0.639855,2.079529 -1.599638,1.759601 -1.599638,2.719383 0,1.439673 4.159057,0.319928 5.598731,-2.719383 1.119746,-2.399455 0.639855,-15.196551 0.47989,-15.036589 h 1.119746 c 0,0 0,5.918657 0.159965,8.478078 0,2.719382 -0.159965,6.238583 1.439673,7.998185 1.119747,1.119745 4.638947,3.03931 4.638947,1.279709 0,-0.959782 -1.919563,-1.919564 -1.919563,-4.638948 V 52.311853 c 1.599637,0 1.279709,4.159057 1.279709,4.159057 l 0.159965,7.678258 c 0,0 -0.319928,2.879347 3.03931,3.999093 1.279709,0.479891 3.839129,0.479891 3.999092,-0.159964 0.159965,-0.639854 -3.199274,-1.759599 -3.199274,-3.999092 v -7.838222 c 0,-5.758694 -0.799818,-7.838222 -3.519203,-9.597823 8.478079,-0.799819 13.75688,-2.879346 16.316299,-8.478077 1.599637,-3.199275 1.919565,-7.038404 1.919565,-9.91775 0,-7.998186 -3.839128,-10.717569 -4.638948,-12.157242 C 80.837187,9.9214703 79.557478,7.2020871 78.917624,6.4022692 76.678131,5.6024499 71.239365,8.3218318 68.360018,10.241397 63.561107,8.8017244 53.323429,8.9616877 49.4843,10.561325 42.445896,5.6024499 38.766732,6.4022692 38.766732,6.4022692 c 0,0 -2.399457,4.3190198 -0.639856,10.5576038 -2.399455,2.879347 -3.999093,4.958875 -4.159056,10.397642 0,4.31902 0.479891,7.038403 2.399455,10.717568 z"
       id="path4"
       style="fill:#ffffff;fill-opacity:1;stroke-width:0.159963" />
  </g>
</svg>
